<?xml version="1.0" standalone="no"?>
<!DOCTYPE svg PUBLIC "-//W3C//DTD SVG 20010904//EN"
 "http://www.w3.org/TR/2001/REC-SVG-20010904/DTD/svg10.dtd">
<svg version="1.0" xmlns="http://www.w3.org/2000/svg"
 width="460.000000pt" height="460.000000pt" viewBox="0 0 460.000000 460.000000"
 preserveAspectRatio="xMidYMid meet">
<metadata>
Created by potrace 1.11, written by Peter Selinger 2001-2013
</metadata>
<g transform="translate(0.000000,460.000000) scale(0.100000,-0.100000)"
fill="#000000" stroke="none">
<path d="M2118 4595 c-1 -1 -32 -5 -68 -9 -72 -7 -101 -11 -175 -27 -27 -6
-63 -13 -80 -16 -51 -9 -276 -79 -360 -113 -219 -88 -479 -247 -650 -400 -98
-87 -254 -251 -287 -302 -9 -14 -23 -32 -32 -40 -30 -30 -146 -216 -204 -328
-89 -169 -172 -389 -198 -523 -2 -10 -5 -26 -8 -35 -7 -22 -15 -67 -22 -117
-3 -22 -7 -46 -9 -53 -19 -56 -27 -415 -12 -562 65 -677 449 -1314 1018 -1687
540 -354 1186 -466 1819 -315 47 11 108 28 135 37 28 10 55 19 60 20 6 1 19 6
30 10 11 4 54 21 95 37 105 41 308 149 415 221 418 280 742 710 900 1193 26
79 71 257 80 318 4 21 9 48 11 60 19 89 25 435 11 571 -7 70 -8 81 -28 185
-18 97 -20 105 -25 122 -3 9 -6 25 -8 35 -9 45 -52 176 -87 266 -207 523 -596
951 -1095 1205 -215 109 -450 184 -709 228 -86 14 -505 30 -517 19z"/>
</g>
</svg>
